<svg xmlns="http://www.w3.org/2000/svg" viewBox="0 0 497 625.03"><defs><style>.c52{fill:#aaa}.c1{fill:#fff;}.c10,.c12,.c15,.c2{fill:none;}.c2{stroke:#fff;stroke-width:5.46px;}.c10,.c12,.c13,.c2{stroke-miterlimit:10;}.c3{fill:#bcbcbc;}.c4{fill:#491e0f;}.c5{fill:#fdd7b6;}.c6{fill:#fcd0a9;}.c7{fill:#fdd6b3;}.c8{fill:#fdd7b4;}.c9{fill:#020202;}.c10{stroke:#491e0f;}.c10,.c12{stroke-linecap:round;stroke-width:2.35px;}.c11{fill:#fbc28e;}.c12{stroke:#765a55;}.c13,.c14{fill:#333;}.c13{stroke:#1c4f66;stroke-width:0.95px;}.c15{stroke:#020202;stroke-linejoin:round;stroke-width:56.93px;}.c16{fill:#a1a1a1;}.c17{fill:#b3b2b3;}.c18{fill:#fccb9f;}.c19{fill:#042735;}.c20{fill:#073244;}.c21{fill:gray;}.c22{fill:#f0efef;}.c23{fill:#a0ce69;}</style></defs><g id="Layer_2"><g id="Layer_1-2"><path class="c1" d="M13.25,312.08H63.9a0,0,0,0,1,0,0v23A25.33,25.33,0,0,1,38.58,360.4h0a25.33,25.33,0,0,1-25.33-25.33v-23a0,0,0,0,1,0,0Z"/><rect class="c2" x="58.04" y="320.37" width="17.38" height="19.82" rx="8.69"/><rect class="c3" x="388.21" y="468.4" width="18.98" height="151.27"/><path class="c4" d="M436.88,38.13h0a9.32,9.32,0,0,1,7.68,10.52L438,104.89a9,9,0,0,1-9.89,8.19h0a9.32,9.32,0,0,1-7.69-10.52L427,46.32A9,9,0,0,1,436.88,38.13Z" transform="translate(0)"/><path class="c4" d="M353.64,23.75l-.54,4.6c4.85.65,8.29,5.37,7.69,10.54l-7.74,66a9,9,0,0,1-9.89,8.19h0c-4.85-.64-8.3-5.36-7.69-10.54l7.74-66C343.82,31.38,348.78,23.1,353.64,23.75Z" transform="translate(0)"/><rect class="c5" x="370.34" y="114.97" width="47.16" height="85.58" rx="23.58"/><rect class="c6" x="369.94" y="114.97" width="13.22" height="86.76"/><ellipse class="c7" cx="433.71" cy="110.54" rx="7.94" ry="8.46"/><ellipse class="c7" cx="341.31" cy="94.99" rx="7.94" ry="8.46"/><path class="c8" d="M392.3,20h0c25.47,2.21,44.44,26,42.37,53.1l-3.12,40.74C429.47,141,407.12,161.2,381.64,159h0c-25.48-2.21-44.44-26-42.37-53.1l3.12-40.74C344.47,38,366.81,17.82,392.3,20Z" transform="translate(0)"/><ellipse class="c9" cx="400.96" cy="96.77" rx="2.55" ry="2.17" transform="translate(284.63 492.5) rotate(-87.19)"/><path class="c6" d="M350,108.5l2.79-36.35c1.86-24.32,21.94-42.42,44.76-40.43h0a39.88,39.88,0,0,1,20.59,8c-6.74-11.17-18.17-19-31.56-20.17h0c-22.82-2-42.88,16.11-44.74,40.43l-4.39,41.9c-1.23,16.13,7.44,25.39,19,34.11A46.21,46.21,0,0,1,350,108.5Z" transform="translate(0)"/><path class="c10" d="M346.91,81.06s4.77-2.93,12.72.07" transform="translate(0)"/><path class="c4" d="M432.12,106.35h0A5.87,5.87,0,0,1,427,99.92l2.09-27.36,5.59.49Z" transform="translate(0)"/><ellipse class="c9" cx="351.91" cy="92.37" rx="2.55" ry="2.17" transform="translate(242.38 439.32) rotate(-87.19)"/><path class="c10" d="M409.35,86.49a17.35,17.35,0,0,0-12.56-2.13" transform="translate(0)"/><path class="c11" d="M377,120.81l-6.91-.6a1.67,1.67,0,0,1-1.45-1.83h0a1.61,1.61,0,0,1,1.71-1.55l6.91.6a1.66,1.66,0,0,1,1.46,1.82h0A1.62,1.62,0,0,1,377,120.81Z" transform="translate(0)"/><path class="c4" d="M341.66,50.17l.3,8.62-4.32,42.28c-.68,4.68,4.18,10.16,8.57,10.87l0,.14a7.39,7.39,0,0,0,4.8-.86,31.78,31.78,0,0,1,20.42-3.13l1.34.22a34.35,34.35,0,0,1,18.48,9.81,18.23,18.23,0,0,0,9.9,5.15l-.07-.08c10.24,1.67,19.75-5.91,21.32-16.83l8-60.79a66,66,0,0,1,10.37,1.18L433,114.23c-3.14,27.94-26.94,47.88-53.15,44.53l-2.5-.32c-26.21-3.35-44.91-28.72-41.77-56.66Z" transform="translate(0)"/><path class="c12" d="M382.74,135.19a12.69,12.69,0,0,1-6.71,1,18.14,18.14,0,0,1-7.21-2.2" transform="translate(0)"/><path class="c4" d="M437.77,38.12s-6.59-17.46-20.54-22.74-25.72-3-33.38-5S367,0,367,0s-3.11,9.65,2,15.26c0,0-6.7-1.29-11.19-4.06S345.9.61,345.9.61,340.31,33.55,367.62,49s70.48,9.39,70.48,9.39Z" transform="translate(0)"/><rect class="c13" x="395.74" y="233.84" width="100.78" height="235.02" rx="22.82" transform="translate(892.26 702.69) rotate(-180)"/><rect class="c14" x="291.87" y="426.69" width="204.08" height="44.06" rx="20.6" transform="translate(787.82 897.45) rotate(180)"/><polyline class="c15" points="390.13 406.5 231.87 407.16 228.31 597.21"/><path d="M330.07,333.27h125.3a0,0,0,0,1,0,0v82.41a33.19,33.19,0,0,1-33.19,33.19H363.26a33.19,33.19,0,0,1-33.19-33.19V333.27a0,0,0,0,1,0,0Z"/><polyline class="c15" points="421.58 420.14 295.17 421.4 291.6 598.16"/><path class="c16" d="M172.24,622.17h82.9V589H201.65L180,602.36a16.74,16.74,0,0,0-7.73,14.29Z" transform="translate(0)"/><path class="c17" d="M235.6,622.17h82.91V589H265l-21.68,13.36a16.75,16.75,0,0,0-7.74,14.29Z" transform="translate(0)"/><ellipse class="c1" cx="291.52" cy="274.81" rx="2.2" ry="2.34"/><path class="c18" d="M296.42,294l-1.87-1c-7.44-3.91-10.49-13.5-6.81-21.42l39.82-85.69c3.68-7.92,12.69-11.16,20.13-7.25l1.88,1c7.43,3.91,10.48,13.5,6.8,21.42l-39.82,85.69C312.87,294.66,303.86,297.9,296.42,294Z" transform="translate(0)"/><path class="c19" d="M356.73,174.79l24.61,13-24.25,52.18L313,216.72l14.62-31.47C333,173.81,346,169.13,356.73,174.79Z" transform="translate(0)"/><ellipse class="c1" cx="369.25" cy="195.84" rx="2.2" ry="2.34"/><path class="c20" d="M455.29,200.52c0-16.24-12.37-29.41-27.63-29.41h-77c-11.4,0-20.65,9.84-20.65,22V352.85H455.29Z" transform="translate(0)"/><path class="c18" d="M232.34,320.36,223,300.7a7.14,7.14,0,0,0-8.22-3.94l-13.9,3.83c-11,3-16.28,15.28-11.19,26h0c5,10.62,17.91,15,27.6,9.48l14.49-8.78C234.71,325.66,233.85,323.55,232.34,320.36Z" transform="translate(0)"/><path class="c18" d="M204.57,322.66l-.94-2c-3.72-8-.69-17.44,6.78-21.11l80.78-39.65c7.46-3.67,16.53-.16,20.25,7.84l.94,2c3.72,8,.69,17.44-6.78,21.11L224.82,330.5C217.36,334.17,208.29,330.66,204.57,322.66Z" transform="translate(0)"/><rect class="c21" x="139.79" y="362.14" width="25.43" height="252.94"/><path class="c22" d="M83.63,605.53H221.37a19.5,19.5,0,0,1,19.5,19.5v0a0,0,0,0,1,0,0H64.13a0,0,0,0,1,0,0v0A19.5,19.5,0,0,1,83.63,605.53Z"/><path class="c8" d="M303.68,286.79v-.06c1.56-9.23,9.85-15.37,18.52-13.7l85.39,16.44c8.64,1.67,14.39,10.47,12.84,19.68v.05c-1.55,9.23-9.85,15.37-18.52,13.7l-85.38-16.44C307.88,304.79,302.14,296,303.68,286.79Z" transform="translate(0)"/><path class="c8" d="M400.31,321.27h0c-8.16-3.42-12.18-13.22-9-21.91l40.2-109.7c3.2-8.74,12.46-13,20.65-9.61h0c8.16,3.42,12.19,13.22,9,21.92L421,311.66C417.76,320.4,408.51,324.7,400.31,321.27Z" transform="translate(0)"/><path class="c19" d="M437.56,172.63l15.78,6.61c8.05,3.37,12,13,8.87,21.61l-11.84,32.3L420,220.44Z" transform="translate(0)"/><path class="c8" d="M317.83,300.26l2.55-22.7a7.56,7.56,0,0,0-5.14-8.1l-14.48-4.37c-11.48-3.46-22.9,4.49-24.3,16.91h0c-1.38,12.26,7.64,23.39,19.33,23.86l17.72.29C317,306.29,317.42,303.94,317.83,300.26Z" transform="translate(0)"/><path class="c23" d="M137.79,351.6c-.13,0-.26,0-.39,0h.39v0Z" transform="translate(0)"/><rect class="c21" y="357.33" width="307.43" height="25.64" rx="12.82"/><path class="c22" d="M351.3,602.37h93.45a16.49,16.49,0,0,1,16.49,16.49v3a0,0,0,0,1,0,0H334.81a0,0,0,0,1,0,0v-3A16.49,16.49,0,0,1,351.3,602.37Z"/><path class="c52" d="M220.25,357.68H104.46c-3.79,0-7.24-2.59-8.82-6.62l-35.1-89.45c-2.06-5.26,1.22-11.25,6.16-11.25H173.79A6.79,6.79,0,0,1,180,255Z" transform="translate(0)"/><rect class="c52" x="141.52" y="341.15" width="140.83" height="16.52" rx="8.26"/></g></g></svg>